<svg width="1438" height="1024" viewBox="0 0 1438 1024" fill="none" xmlns="http://www.w3.org/2000/svg">
<path d="M833 425C1078.2 465.4 1014.5 158.167 952 -0.5H0V488.5C47.6667 534.333 198.5 619.1 420.5 591.5C698 557 526.5 374.5 833 425Z" fill="white"/>
<path d="M223.569 234.068C223.569 234.068 -4.64542 291.676 192.102 350.49C388.85 409.305 274.181 131.879 223.569 234.068Z" fill="#0D6EFD"/>
<path d="M607.75 223.78C621.71 157.52 677.553 169.674 751.507 114C770.122 114 821.311 123.959 877.154 163.793C946.958 213.586 805.464 319.053 735.66 375.12C665.856 431.186 593.789 290.04 607.75 223.78Z" fill="#0D6EFD"/>
<path d="M870 829.5C777.2 867.5 817.333 975.667 849 1025H1438.5V763.5C1439.33 728.167 1423 645.9 1351 599.5C1261 541.5 1176.5 565 1052.5 631C928.5 697 986 782 870 829.5Z" fill="#0D6EFD"/>
</svg>
