<?xml version="1.0" encoding="utf-8"?>
<svg id="master-artboard" viewBox="0 0 578.3333129882812 1000.3999633789062" version="1.1" xmlns="http://www.w3.org/2000/svg" x="0px" y="0px" style="enable-background:new 0 0 1400 980;" width="578.3333129882812px" height="1000.3999633789062px"><defs><style id="ee-google-fonts">@import url(https://fonts.googleapis.com/css?family=Anton:400|Roboto+Slab:100,300,400,700);</style><path id="text-path-0" d="M 778.8464965820312 213.4612274169922 A 100 18 0 0 1 988.3533935546875 213.4612274169922 A 100 18 0 0 1 778.8464965820312 213.4612274169922 Z" style="fill: none; stroke: red; stroke-width: 2;"/><path id="text-path-1" d="M 664.5464477539062 37.96122741699219 A 100 19 0 0 1 876.5812377929688 37.96122741699219 A 100 19 0 0 1 664.5464477539062 37.96122741699219" style="fill: none; stroke: red; stroke-width: 2;"/><path id="text-path-2" d="M 765.3650512695312 211.70851135253906 A 100 17 0 0 1 991.5017700195312 211.70851135253906 A 100 17 0 0 1 765.3650512695312 211.70851135253906" style="fill: none; stroke: red; stroke-width: 2;"/><path id="path-1" d="M 765.3650512695312 211.70851135253906 A 100 17 0 0 1 991.5017700195312 211.70851135253906 A 100 17 0 0 1 765.3650512695312 211.70851135253906" style="fill: none; stroke: red; stroke-width: 2;"/></defs><rect id="ee-background" x="0" y="0" width="578.3333129882812" height="1000.3999633789062" style="fill: white; fill-opacity: 1; pointer-events: none;"/>


<path style="fill: rgb(63, 61, 61); fill-opacity: 1; stroke: rgb(0, 0, 0); stroke-opacity: 1; stroke-width: 0; paint-order: fill;"/><path style="fill: rgb(63, 61, 61); fill-opacity: 1; stroke: rgb(0, 0, 0); stroke-opacity: 1; stroke-width: 0; paint-order: fill;"/><path style="fill: rgb(63, 61, 61); fill-opacity: 1; stroke: rgb(0, 0, 0); stroke-opacity: 1; stroke-width: 0; paint-order: fill;"/><path style="fill: rgb(63, 61, 61); fill-opacity: 1; stroke: rgb(0, 0, 0); stroke-opacity: 1; stroke-width: 0; paint-order: fill;"/><path style="fill: rgb(63, 61, 61); fill-opacity: 1; stroke: rgb(0, 0, 0); stroke-opacity: 1; stroke-width: 0; paint-order: fill;"/><path style="fill: rgb(63, 61, 61); fill-opacity: 1; stroke: rgb(0, 0, 0); stroke-opacity: 1; stroke-width: 0; paint-order: fill;"/><path d="M 0.399993896484375 305.26666259765625 C 0.399993896484375 305.26666259765625 274.66668701171875 314.33331298828125 402.73333740234375 581.7999877929688 C 530.7999877929688 849.2666625976562 -0.7333394289016724 896.8666381835938 -0.7333394289016724 896.8666381835938 L 0.399993896484375 305.26666259765625 Z" style="fill-opacity: 1; stroke: rgb(0, 0, 0); stroke-opacity: 0; stroke-width: 10; paint-order: fill; fill: rgb(13, 110, 253);" transform="matrix(0.9999999999999999, 0, 0, 0.9999999999999999, 0, 0)"/><path d="M 580.6666259765625 101.26666259765625 C 580.6666259765625 101.26666259765625 333.5999755859375 41.199981689453125 361.9333190917969 205.5333251953125 C 390.26666259765625 369.8666687011719 577.2666625976562 306.3999938964844 577.2666625976562 306.3999938964844 L 580.6666259765625 101.26666259765625 Z" style="fill: rgb(13, 110, 253); fill-opacity: 1; stroke: rgb(0, 0, 0); stroke-opacity: 0; stroke-width: 10; paint-order: stroke;" transform="matrix(0.9999999999999999, 0, 0, 0.9999999999999999, 0, 0)"/><path d="M 135.26666259765625 139.79998779296875 C 135.26666259765625 139.79998779296875 111.46666717529297 100.13333129882812 79.73332977294922 137.5333251953125 C 47.99999237060547 174.93331909179688 67.97318267822266 184.456298828125 96.73332977294922 191.93331909179688 C 125.49347677728427 199.41033212415329 139.62302168065526 148.1851297892762 135.26666259765625 139.79998779296875 Z" style="fill: rgb(52, 132, 250); fill-opacity: 1; stroke: rgb(0, 0, 0); stroke-opacity: 0; stroke-width: 10; paint-order: stroke;" transform="matrix(0.9999999999999999, 0, 0, 0.9999999999999999, 367.20001220703125, 7.933333396911621)"/><path d="M 200.99998474121094 97.86666107177734" style="fill: rgb(13, 110, 253); fill-opacity: 1; stroke: rgb(0, 0, 0); stroke-opacity: 0; stroke-width: 10; paint-order: stroke;"/><path d="M 122.79999542236328 150 L 122.79999542236328 150" style="fill: rgb(13, 110, 253); fill-opacity: 1; stroke: rgb(0, 0, 0); stroke-opacity: 0; stroke-width: 10; paint-order: stroke;"/><path d="M -185.4666748046875 240.66665649414062" style="fill: rgb(52, 132, 250); fill-opacity: 1; stroke: rgb(0, 0, 0); stroke-opacity: 0; stroke-width: 10; paint-order: fill;" transform="matrix(0.9999999999999999, 0, 0, 0.9999999999999999, 367.19999708175646, 7.933333270284848)"/><path d="M 135.26666259765625 139.79998779296875 C 135.26666259765625 139.79998779296875 111.46666717529297 100.13333129882812 79.73332977294922 137.5333251953125 C 47.99999237060547 174.93331909179688 67.97318267822266 184.456298828125 96.73332977294922 191.93331909179688 C 125.49347677728427 199.41033212415329 139.62302168065526 148.1851297892762 135.26666259765625 139.79998779296875 Z" style="fill: rgb(52, 132, 250); fill-opacity: 1; stroke: rgb(0, 0, 0); stroke-opacity: 0; stroke-width: 10; paint-order: stroke;" transform="matrix(1.0487136840820312, 1.612180709838867, -1.612180709838867, 1.0487136840820312, 487.29901123046875, 225.57098388671875)"/><path d="M 135.26666259765625 139.79998779296875 C 135.26666259765625 139.79998779296875 111.46666717529297 100.13333129882812 79.73332977294922 137.5333251953125 C 47.99999237060547 174.93331909179688 67.97318267822266 184.456298828125 96.73332977294922 191.93331909179688 C 125.49347677728427 199.41033212415329 139.62302168065526 148.1851297892762 135.26666259765625 139.79998779296875 Z" style="fill: rgb(52, 132, 250); fill-opacity: 1; stroke: rgb(0, 0, 0); stroke-opacity: 0; stroke-width: 10; paint-order: stroke;" transform="matrix(-0.06148867309093473, 1.9222761392593382, -1.9222761392593382, -0.06148867309093473, 350.4167480468748, 265.87686157226557)"/></svg>