<?xml version="1.0" encoding="utf-8"?>
<svg id="master-artboard" viewBox="0 0 516.0000915527344 720.4666748046875" version="1.1" xmlns="http://www.w3.org/2000/svg" x="0px" y="0px" style="enable-background:new 0 0 1400 980;" width="100%" height="10%"><defs><style id="ee-google-fonts">@import url(https://fonts.googleapis.com/css?family=Anton:400|Roboto+Slab:100,300,400,700);</style><path id="text-path-0" d="M 778.8464965820312 213.4612274169922 A 100 18 0 0 1 988.3533935546875 213.4612274169922 A 100 18 0 0 1 778.8464965820312 213.4612274169922 Z" style="fill: none; stroke: red; stroke-width: 2;"/><path id="text-path-1" d="M 664.5464477539062 37.96122741699219 A 100 19 0 0 1 876.5812377929688 37.96122741699219 A 100 19 0 0 1 664.5464477539062 37.96122741699219" style="fill: none; stroke: red; stroke-width: 2;"/><path id="text-path-2" d="M 765.3650512695312 211.70851135253906 A 100 17 0 0 1 991.5017700195312 211.70851135253906 A 100 17 0 0 1 765.3650512695312 211.70851135253906" style="fill: none; stroke: red; stroke-width: 2;"/><path id="path-1" d="M 765.3650512695312 211.70851135253906 A 100 17 0 0 1 991.5017700195312 211.70851135253906 A 100 17 0 0 1 765.3650512695312 211.70851135253906" style="fill: none; stroke: red; stroke-width: 2;"/></defs><rect id="ee-background" x="0" y="0" width="516.0001220703125" height="720.4666748046875" style="fill: white; fill-opacity: 0; pointer-events: none;"/>


<path d="M 0.399993896484375 280.33331298828125 C 0.399993896484375 280.33331298828125 142.06668090820312 421.9999694824219 253.13333129882812 284.86663818359375 C 364.1999816894531 147.73330688476562 514.933349609375 270.13330078125 514.933349609375 270.13330078125 L 514.933349609375 -0.733356714248657 L -1.8666727542877197 0.39997661113739025 L 0.399993896484375 280.33331298828125 Z" style="fill: rgb(13, 110, 253); fill-opacity: 1; stroke: rgb(255, 255, 255); stroke-opacity: 1; stroke-width: 10; paint-order: stroke;" transform="matrix(1.0048463352546053, 0, 0, 1.0048463352546053, -0.8388558620848608, -0.26671452719433514)"/><path d="M 248.59999084472656 256.5332946777344 L 215.7333221435547 253.13330078125" style="fill: rgb(52, 132, 250); fill-opacity: 1; stroke: rgb(255, 255, 255); stroke-opacity: 0; stroke-width: 10; paint-order: fill;"/><path d="M 407.26666259765625 121.66664123535156 L 407.26666259765625 121.66664123535156" style="fill: rgb(52, 132, 250); fill-opacity: 1; stroke: rgb(255, 255, 255); stroke-opacity: 0; stroke-width: 10; paint-order: stroke;"/><path d="M -1.8666727542877197 147.73330688476562 C -1.8666727542877197 147.73330688476562 109.19998168945312 105.79998779296875 238.39999389648438 143.19998168945312 C 367.6000061035156 180.5999755859375 518.3333129882812 101.26663970947266 518.3333129882812 101.26663970947266 L 516.066650390625 -5.266690254211426 L -1.8666727542877197 -0.7333567142486571 L -1.8666727542877197 147.73330688476562 Z" style="fill: rgb(52, 132, 250); fill-opacity: 1; stroke: rgb(255, 255, 255); stroke-opacity: 0; stroke-width: 10; paint-order: fill;"/><path d="M 122.79999542236328 509.2666320800781 C 122.79999542236328 509.2666320800781 96.73333740234375 627.1333618164062 210.06666564941406 581.7999877929688 C 323.3999938964844 536.4666137695312 104.66665649414062 451.46661376953125 122.79999542236328 509.2666320800781 Z" style="fill: rgb(52, 132, 250); fill-opacity: 1; stroke: rgb(255, 255, 255); stroke-opacity: 0; stroke-width: 10; paint-order: stroke;" transform="matrix(0.9999999999999999, 0, 0, 0.9999999999999999, -30.59999975681319, -312.799997514089)"/><path d="M 188.81787872314453 502.5053405761719 C 188.81787872314453 502.5053405761719 108.07720947265625 604.5742797851562 221.41053771972656 559.2409057617188 C 334.7438659667969 513.9075317382812 170.68453979492188 444.705322265625 188.81787872314453 502.5053405761719 Z" style="fill: rgb(13, 110, 253); fill-opacity: 1; stroke: rgb(255, 255, 255); stroke-opacity: 0; stroke-width: 10; paint-order: stroke;" transform="matrix(0.7240699734628439, 0.6406696725580214, -0.6406696725580214, 0.7240699734628439, 542.1976903908189, -437.8884241195131)"/><path d="M 204.39999389648438 504.7333068847656" style="fill: rgb(13, 110, 253); fill-opacity: 1; stroke: rgb(255, 255, 255); stroke-opacity: 1; stroke-width: 10; paint-order: fill;"/></svg>